<svg xmlns="http://www.w3.org/2000/svg" width="42" height="42" viewBox="0 0 42 42"><defs><style>.a{fill:rgba(255,255,255,0);}.b{fill:#dc3545;}</style></defs><rect class="a" width="42" height="42"/><path class="b" d="M34,17.96c0,9.7-6.751,16.6-16.721,16.6A17.12,17.12,0,0,1,0,17.563a17.12,17.12,0,0,1,17.279-17A16.765,16.765,0,0,1,28.865,5.011l-4.7,4.449C18.01,3.62,6.57,8.007,6.57,17.563A10.734,10.734,0,0,0,17.279,28.3c6.842,0,9.406-4.826,9.81-7.328h-9.81V15.122h16.45A14.67,14.67,0,0,1,34,17.96Z" transform="translate(4 3.438)"/></svg>