<svg xmlns="http://www.w3.org/2000/svg" width="230" height="202.121" viewBox="0 0 230 202.121"><defs><style>.a{fill:#5e8e9c;}.b{fill:#3f3d56;}.c{fill:#fff;}.d{fill:#edd4ba;}.e{fill:#e6e6e6;}.f{fill:#d59a60;}</style></defs><path class="a" d="M550.659,601.141c-.4.562-.808,1.119-1.21,1.673a6.9,6.9,0,0,1-3.928,1.218H329.461a6.931,6.931,0,0,1-3.776-1.115c-.373-.492-.742-.988-1.115-1.484l.373-.2L434.322,540.6a6.568,6.568,0,0,1,6.342-.008L550.29,600.936Z" transform="translate(-322.491 -401.91)"/><path class="b" d="M542.53,294.652l-94.8-54.745a26.248,26.248,0,0,0-26.231-.013L326.47,294.652a6.98,6.98,0,0,0-6.97,6.97V418.056a6.978,6.978,0,0,0,6.97,6.97H542.53a6.982,6.982,0,0,0,6.97-6.97V301.622A6.98,6.98,0,0,0,542.53,294.652Zm6.15,123.4a6.165,6.165,0,0,1-6.15,6.15H326.47a6.161,6.161,0,0,1-6.15-6.15V301.622a6.157,6.157,0,0,1,6.15-6.15L421.5,240.714a26.248,26.248,0,0,1,26.231.013l94.8,54.745a6.157,6.157,0,0,1,6.15,6.15Z" transform="translate(-319.5 -222.905)"/><path class="c" d="M487.135,341.418a6.3,6.3,0,0,1-2.1-.352l-.124-.044-.025-.276q-.116.057-.233.109l-.082.036-.083-.036c-.173-.076-.344-.162-.51-.255L408.5,298.186v-86.6A7.593,7.593,0,0,1,416.085,204H557.938a7.593,7.593,0,0,1,7.585,7.585V298.3l-.1.059L490.289,340.6a6.46,6.46,0,0,1-3.155.818Z" transform="translate(-372.012 -203.795)"/><path class="b" d="M486.84,341.328a6.5,6.5,0,0,1-2.166-.364l-.248-.087-.011-.117-.138.061-.165-.072c-.179-.079-.357-.168-.528-.264L408,298.011V211.29a7.8,7.8,0,0,1,7.79-7.79H557.643a7.8,7.8,0,0,1,7.79,7.79v86.832l-75.338,42.362A6.664,6.664,0,0,1,486.84,341.328Zm-1.645-1.056a5.942,5.942,0,0,0,4.5-.5l74.92-42.127V211.29a6.978,6.978,0,0,0-6.97-6.97H415.79a6.978,6.978,0,0,0-6.97,6.97v86.241l4.915,2.761,70.25,39.477q.143.081.291.152.148-.071.291-.152l.552-.311Z" transform="translate(-371.717 -203.5)"/><path class="b" d="M550.086,384.677,520.334,401.4l-5.125,2.882L440.08,446.531a6.249,6.249,0,0,1-3.054.791,6.113,6.113,0,0,1-2.029-.34,4.952,4.952,0,0,1-.533-.205q-.252-.111-.492-.246l-70.25-39.477-5.125-2.878L323.78,384.612a.414.414,0,0,1-.156-.562.41.41,0,0,1,.558-.156L358.6,403.233l5.125,2.878,70.652,39.7a5.362,5.362,0,0,0,.73.34c.107.041.217.078.328.111a5.438,5.438,0,0,0,4.247-.451l75.531-42.466,5.125-2.882,29.351-16.5a.409.409,0,1,1,.4.713Z" transform="translate(-321.902 -309.905)"/><path class="d" d="M462.334,260.06h-11.48a3.28,3.28,0,0,1,0-6.56h11.48a3.28,3.28,0,0,1,0,6.56Z" transform="translate(-395.067 -233.001)"/><path class="e" d="M475.864,287.06H450.855a3.28,3.28,0,0,1,0-6.56h25.009a3.28,3.28,0,1,1,0,6.56Z" transform="translate(-395.067 -248.931)"/><path class="f" d="M580.207,359.06H509.28a3.28,3.28,0,0,1,0-6.56h70.927a3.28,3.28,0,0,1,0,6.56Z" transform="translate(-429.538 -291.413)"/><path class="e" d="M576.736,390.06H492.28a3.28,3.28,0,0,1,0-6.56h84.456a3.28,3.28,0,0,1,0,6.56Z" transform="translate(-419.508 -309.703)"/><path class="e" d="M576.736,420.06H492.28a3.28,3.28,0,0,1,0-6.56h84.456a3.28,3.28,0,0,1,0,6.56Z" transform="translate(-419.508 -327.404)"/></svg>